<?xml version="1.0" encoding="UTF-8"?>
<svg id="REPORT" xmlns="http://www.w3.org/2000/svg" viewBox="0 0 1217.16 154.92">
  <defs>
    <style>
      .cls-1 {
        fill: #231f20;
      }
    </style>
  </defs>
  <g>
    <path class="cls-1" d="M77.07,9.4C39.48,9.4,9.01,39.87,9.01,77.46s30.47,68.07,68.07,68.07,68.07-30.47,68.07-68.07S114.66,9.4,77.07,9.4ZM77.07,136.94c-12.75,0-24.57-4.03-34.26-10.89l2.5-6.29c.23-.58.95-.79,1.45-.42,8.65,6.28,19.32,9.96,30.83,9.84,27.76-.27,50.5-22.66,51.2-50.41.23-9.12-1.92-17.73-5.87-25.26l-25.15,61.84h-23.63l-8.49-61.1-23.3,61.51-2.97,7.68c-13.29-10.92-21.79-27.48-21.79-45.98,0-32.8,26.68-59.48,59.48-59.48,12.88,0,24.81,4.11,34.55,11.09l-2.45,6.32c-.23.59-.95.8-1.46.43-8.58-6.33-19.18-10.09-30.65-10.09-28.52,0-51.73,23.21-51.73,51.73,0,9.63,2.65,18.65,7.25,26.38l24.2-64.17h23.63l8.31,63.5,22.83-62.35,3.56-9.05c13.1,10.92,21.45,27.35,21.45,45.69,0,32.8-26.68,59.48-59.48,59.48Z"/>
    <path class="cls-1" d="M77.07,145.95c-9.25,0-18.22-1.81-26.66-5.38-8.16-3.45-15.48-8.39-21.77-14.68-6.29-6.29-11.23-13.61-14.68-21.77-3.57-8.44-5.38-17.41-5.38-26.66s1.81-18.22,5.38-26.66c3.45-8.16,8.39-15.48,14.68-21.77,6.29-6.29,13.61-11.23,21.77-14.68,8.44-3.57,17.41-5.38,26.66-5.38s18.22,1.81,26.66,5.38c8.16,3.45,15.48,8.39,21.77,14.68,6.29,6.29,11.23,13.61,14.68,21.77,3.57,8.44,5.38,17.41,5.38,26.66s-1.81,18.22-5.38,26.66c-3.45,8.16-8.39,15.48-14.68,21.77-6.29,6.29-13.61,11.23-21.77,14.68-8.44,3.57-17.41,5.38-26.66,5.38ZM77.07,9.82C39.77,9.82,9.43,40.16,9.43,77.46s30.34,67.64,67.64,67.64,67.64-30.34,67.64-67.64S114.37,9.82,77.07,9.82ZM77.07,137.37c-12.43,0-24.36-3.79-34.51-10.96l-.27-.19,2.62-6.6c.21-.53.72-.87,1.29-.87.29,0,.57.09.81.26,8.8,6.39,19.19,9.76,30.06,9.76.17,0,.34,0,.51,0,27.32-.27,50.09-22.7,50.78-50,.21-8.4-1.66-16.76-5.4-24.24l-24.91,61.25h-24.28l-8.31-59.82-22.71,59.96-3.19,8.23-.45-.37c-13.95-11.45-21.95-28.33-21.95-46.31,0-33.03,26.87-59.91,59.91-59.91,12.56,0,24.59,3.86,34.8,11.17l.27.19-2.57,6.62c-.21.54-.71.88-1.29.88-.3,0-.58-.09-.82-.27-8.87-6.54-19.38-10-30.4-10-28.29,0-51.31,23.02-51.31,51.31,0,8.92,2.33,17.68,6.74,25.4l23.99-63.61h24.29l8.13,62.15,22.23-60.73,3.78-9.61.45.38c13.73,11.44,21.6,28.22,21.6,46.02,0,33.03-26.87,59.91-59.91,59.91ZM43.33,125.9c9.94,6.95,21.6,10.62,33.75,10.62,32.57,0,59.06-26.49,59.06-59.06,0-17.35-7.59-33.72-20.84-44.99l-3.35,8.51-23.42,63.97-8.48-64.84h-22.96l-24.4,64.71-.45-.76c-4.78-8.03-7.31-17.23-7.31-26.6,0-28.76,23.4-52.15,52.15-52.15,11.2,0,21.88,3.52,30.9,10.17.09.07.2.1.31.1.22,0,.42-.13.5-.34l2.33-6.01c-10-7.08-21.77-10.82-34.04-10.82-32.57,0-59.06,26.49-59.06,59.06,0,17.53,7.71,34,21.18,45.28l2.76-7.13,23.88-63.05,8.67,62.37h22.97l25.39-62.42.42.81c4.09,7.81,6.14,16.61,5.92,25.47-.34,13.53-5.87,26.24-15.58,35.8-9.71,9.55-22.5,14.89-36.04,15.02-11.24.11-22-3.33-31.08-9.92-.09-.07-.2-.1-.31-.1-.22,0-.42.13-.5.34l-2.38,5.98Z"/>
  </g>
  <g>
    <path class="cls-1" d="M166.18,108.93V41.88h9.83l11.21,28.62c2.38,6.08,5.73,14.79,7.81,21.25h.2c-.53-8.6-1.15-18.93-1.15-30.93v-18.95h9.4v67.05h-9.83l-11.33-28.54c-2.48-6.16-5.43-14.24-7.35-21.32h-.2c.47,7.74.81,17.25.81,31.12v18.74h-9.4Z"/>
    <path class="cls-1" d="M252.81,74.55c0,25.2-8.81,35.17-20.67,35.17-13.35,0-20.01-14.18-20.01-34.44s7.61-34.21,21.04-34.21,19.64,15.38,19.64,33.47ZM223.18,75.4c0,14.58,2.76,25.06,9.51,25.06s9.08-12.07,9.08-25.46c0-12.14-2.02-24.67-9.18-24.67-6.65,0-9.41,11.03-9.41,25.06Z"/>
    <path class="cls-1" d="M261.49,42.87c3.71-.88,8.35-1.29,12.79-1.29,6.89,0,12.67,1.2,16.62,4.9,3.73,3.54,5.06,8.01,5.06,13.55,0,7.81-3.75,13.85-10.53,16.99v.2c4.72,1.69,7.17,6.14,8.53,14.08,1.41,8.21,3.01,15.34,4.09,17.63h-11.02c-.88-1.92-2.3-8.5-3.45-16.29-1.29-8.73-3.77-11.56-9.08-11.56h-2.43v27.85h-10.56V42.87ZM272.05,72.88h2.76c6.39,0,10.38-4.96,10.38-11.77s-2.66-11.04-9.58-11.16c-1.34,0-2.7.1-3.56.4v22.53Z"/>
    <path class="cls-1" d="M312.34,51.62h-12.03v-9.74h34.73v9.74h-12.08v57.32h-10.62v-57.32Z"/>
    <path class="cls-1" d="M352.89,41.88v27.74h15.93v-27.74h10.62v67.05h-10.62v-29.54h-15.93v29.54h-10.62V41.88h10.62Z"/>
    <path class="cls-1" d="M399.06,108.93l-12.09-67.05h11l4.33,29.25c1.17,8,1.95,15.64,2.79,23.84h.28c.91-8.37,2.39-15.65,3.9-23.92l5.42-29.16h8.74l5.22,28.78c1.35,7.71,2.65,15.24,3.53,24.31h.24c.95-9.17,1.95-16.42,2.99-24.09l4.3-28.99h10.39l-12.36,67.05h-10.8l-5.07-26.74c-1.21-6.64-2.32-14.22-3.17-22.04h-.2c-1.08,7.89-2.22,15.23-3.68,22.21l-5.47,26.57h-10.3Z"/>
    <path class="cls-1" d="M484.24,78.38h-15.95v21.34h18.09v9.22h-28.71V41.88h27.53v9.22h-16.91v18.41h15.95v8.88Z"/>
    <path class="cls-1" d="M493.54,97.6c2.5,1.51,6.86,2.67,10.4,2.67,6.54,0,10.11-3.83,10.11-9.31s-3.3-8.47-8.78-12.25c-7.41-4.75-12.63-11.43-12.63-18.67,0-10.49,7.12-18.75,19.64-18.75,4.32,0,8.22,1.28,10.01,2.43l-1.97,9.12c-1.82-1.19-4.66-2.29-8.28-2.29-6.03,0-8.9,4.1-8.9,8.13,0,5.2,2.68,7.56,9.51,11.97,8.52,5.52,11.91,12.02,11.91,19.23,0,11.99-8.64,19.66-20.62,19.66-5.04,0-10.07-1.42-12.16-2.8l1.78-9.13Z"/>
    <path class="cls-1" d="M540.26,51.62h-12.03v-9.74h34.73v9.74h-12.08v57.32h-10.62v-57.32Z"/>
    <path class="cls-1" d="M596.76,78.38h-15.95v21.34h18.09v9.22h-28.71V41.88h27.53v9.22h-16.91v18.41h15.95v8.88Z"/>
    <path class="cls-1" d="M607.59,42.87c3.71-.88,8.35-1.29,12.79-1.29,6.89,0,12.67,1.2,16.62,4.9,3.73,3.54,5.06,8.01,5.06,13.55,0,7.81-3.75,13.85-10.53,16.99v.2c4.72,1.69,7.17,6.14,8.53,14.08,1.41,8.21,3.01,15.34,4.09,17.63h-11.02c-.88-1.92-2.3-8.5-3.45-16.29-1.29-8.73-3.77-11.56-9.08-11.56h-2.44v27.85h-10.56V42.87ZM618.15,72.88h2.76c6.39,0,10.38-4.96,10.38-11.77s-2.66-11.04-9.58-11.16c-1.34,0-2.7.1-3.56.4v22.53Z"/>
    <path class="cls-1" d="M651.66,108.93V41.88h9.83l11.21,28.62c2.38,6.08,5.73,14.79,7.81,21.25h.2c-.53-8.6-1.15-18.93-1.15-30.93v-18.95h9.4v67.05h-9.83l-11.33-28.54c-2.47-6.16-5.43-14.24-7.35-21.32h-.2c.47,7.74.81,17.25.81,31.12v18.74h-9.4Z"/>
    <path class="cls-1" d="M716.43,108.93V41.88h9.83l11.21,28.62c2.38,6.08,5.73,14.79,7.81,21.25h.2c-.53-8.6-1.15-18.93-1.15-30.93v-18.95h9.4v67.05h-9.83l-11.33-28.54c-2.47-6.16-5.43-14.24-7.35-21.32h-.2c.47,7.74.81,17.25.81,31.12v18.74h-9.4Z"/>
    <path class="cls-1" d="M792.04,78.38h-15.95v21.34h18.09v9.22h-28.71V41.88h27.53v9.22h-16.91v18.41h15.95v8.88Z"/>
    <path class="cls-1" d="M811.31,108.93l-12.09-67.05h11l4.33,29.25c1.17,8,1.95,15.64,2.79,23.84h.28c.91-8.37,2.39-15.65,3.9-23.92l5.42-29.16h8.74l5.22,28.78c1.35,7.71,2.65,15.24,3.53,24.31h.24c.95-9.17,1.95-16.42,2.99-24.09l4.3-28.99h10.39l-12.36,67.05h-10.8l-5.07-26.74c-1.21-6.64-2.32-14.22-3.17-22.04h-.2c-1.08,7.89-2.22,15.23-3.68,22.21l-5.47,26.57h-10.3Z"/>
    <path class="cls-1" d="M868.39,97.6c2.5,1.51,6.86,2.67,10.4,2.67,6.54,0,10.11-3.83,10.11-9.31s-3.3-8.47-8.78-12.25c-7.41-4.75-12.63-11.43-12.63-18.67,0-10.49,7.12-18.75,19.64-18.75,4.32,0,8.22,1.28,10.01,2.43l-1.97,9.12c-1.82-1.19-4.66-2.29-8.28-2.29-6.03,0-8.9,4.1-8.9,8.13,0,5.2,2.68,7.56,9.51,11.97,8.52,5.52,11.91,12.02,11.91,19.23,0,11.99-8.64,19.66-20.62,19.66-5.04,0-10.07-1.42-12.16-2.8l1.78-9.13Z"/>
    <path class="cls-1" d="M923.63,108.93V41.88h4.28l13.53,34.62c3.28,8.46,6.86,17.51,9.45,25.67h.2c-.7-12.73-.7-19.5-.7-30.64v-29.65h4.08v67.05h-4.28l-14.33-36.41c-2.98-7.46-5.77-14.52-8.66-24.37h-.2c.7,10.35.7,17.71.7,32.53v28.25h-4.08Z"/>
    <path class="cls-1" d="M988.8,75.6h-17.71v29.55h20.29v3.78h-24.57V41.88h23.28v3.78h-19v26.17h17.71v3.78Z"/>
    <path class="cls-1" d="M1007.7,45.56h-12.54v-3.68h29.35v3.68h-12.54v63.37h-4.28v-63.37Z"/>
    <path class="cls-1" d="M1043.51,108.93l-13.73-67.05h4.38l7.16,35.82c1.79,8.85,3.08,16.32,3.98,24.57h.4c.8-8.66,2.39-15.82,4.18-24.77l7.06-35.62h3.98l7.26,34.72c1.69,8.16,3.38,15.92,4.38,25.67h.3c1.29-10.25,2.69-17.61,4.18-25.17l6.96-35.22h4.28l-13.83,67.05h-3.78l-7.96-39.2c-1.49-7.66-2.89-15.12-3.68-21.99h-.2c-.8,7.26-1.99,14.33-3.68,22.38l-7.96,38.8h-3.68Z"/>
    <path class="cls-1" d="M1128.37,75.4c0,24.97-8.36,34.32-18.01,34.32-8.66,0-17.01-9.25-17.01-34.32s8.46-34.32,18.21-34.32c8.56,0,16.81,9.15,16.81,34.32ZM1097.83,75.4c0,12.93,2.59,30.44,13.13,30.44s12.93-17.51,12.93-30.44-2.59-30.44-13.03-30.44-13.03,17.31-13.03,30.44Z"/>
    <path class="cls-1" d="M1138.12,42.87c2.69-1,5.97-1.29,9.05-1.29,6.27,0,10.35,1.59,13.33,4.68,2.88,3.08,4.38,7.56,4.38,12.54,0,9.45-4.38,14.52-11.04,17.61v.2c5.17,1.29,7.96,6.37,9.55,16.12,1.69,10.25,2.79,14.33,3.58,16.22h-4.28c-.99-2.09-2.19-8.16-3.68-16.91-1.69-9.75-5.07-13.83-12.93-13.83h-3.68v30.74h-4.28V42.87ZM1142.4,74.81h3.78c8.26,0,14.23-5.87,14.23-15.22s-3.68-14.33-13.43-14.33c-1.79,0-3.38.1-4.58.4v29.15Z"/>
    <path class="cls-1" d="M1175.03,41.88h4.28v32.93h.2c1.79-2.79,3.28-5.37,4.68-7.76l14.72-25.17h4.88l-17.31,28.25,17.91,38.8h-4.68l-16.12-35.12-4.28,6.96v28.16h-4.28V41.88Z"/>
  </g>
</svg>