<?xml version="1.0" encoding="UTF-8"?>
<svg id="Layer_2" data-name="Layer 2" xmlns="http://www.w3.org/2000/svg" viewBox="0 0 757.29 274.82">
  <defs>
    <style>
      .cls-1 {
        fill: #231f20;
      }
    </style>
  </defs>
  <g>
    <path class="cls-1" d="M103.96,49.1c-47.7,0-86.38,38.67-86.38,86.38s38.67,86.38,86.38,86.38,86.38-38.67,86.38-86.38-38.67-86.38-86.38-86.38ZM103.96,210.96c-16.18,0-31.18-5.12-43.48-13.81l3.17-7.98c.29-.74,1.2-1,1.84-.54,10.98,7.97,24.51,12.63,39.12,12.49,35.22-.35,64.09-28.76,64.97-63.97.29-11.58-2.44-22.51-7.45-32.06l-31.91,78.47h-29.98l-10.77-77.53-29.56,78.05-3.77,9.74c-16.87-13.86-27.65-34.87-27.65-58.35,0-41.62,33.86-75.48,75.48-75.48,16.34,0,31.48,5.22,43.85,14.08l-3.11,8.02c-.29.75-1.21,1.02-1.85.54-10.89-8.04-24.34-12.8-38.89-12.8-36.2,0-65.65,29.45-65.65,65.65,0,12.22,3.36,23.67,9.2,33.48l30.71-81.43h29.98l10.54,80.58,28.97-79.13,4.52-11.49c16.62,13.86,27.21,34.71,27.21,57.99,0,41.62-33.86,75.48-75.48,75.48Z"/>
    <path class="cls-1" d="M103.96,222.39c-11.73,0-23.12-2.3-33.83-6.83-10.35-4.38-19.64-10.64-27.63-18.63-7.98-7.98-14.25-17.28-18.63-27.63-4.53-10.72-6.83-22.1-6.83-33.83s2.3-23.12,6.83-33.83c4.38-10.35,10.64-19.64,18.63-27.63,7.98-7.98,17.28-14.25,27.63-18.63,10.72-4.53,22.1-6.83,33.83-6.83s23.12,2.3,33.83,6.83c10.35,4.38,19.64,10.64,27.63,18.63,7.98,7.98,14.25,17.28,18.63,27.63,4.53,10.72,6.83,22.1,6.83,33.83s-2.3,23.12-6.83,33.83c-4.38,10.35-10.64,19.64-18.63,27.63-7.98,7.98-17.28,14.25-27.63,18.63-10.72,4.53-22.1,6.83-33.83,6.83ZM103.96,49.64c-47.33,0-85.84,38.51-85.84,85.84s38.51,85.84,85.84,85.84,85.84-38.51,85.84-85.84-38.51-85.84-85.84-85.84ZM103.96,211.5c-15.78,0-30.92-4.81-43.79-13.91l-.35-.24,3.33-8.38c.27-.67.91-1.11,1.63-1.11.37,0,.72.12,1.03.33,11.16,8.11,24.36,12.39,38.15,12.39.22,0,.43,0,.65,0,34.66-.34,63.57-28.8,64.44-63.45.27-10.66-2.1-21.27-6.86-30.76l-31.61,77.72h-30.81l-10.55-75.91-28.82,76.08-4.04,10.44-.57-.47c-17.7-14.53-27.85-35.95-27.85-58.77,0-41.92,34.1-76.02,76.02-76.02,15.94,0,31.21,4.9,44.16,14.18l.34.24-3.26,8.41c-.26.68-.91,1.12-1.64,1.12-.37,0-.73-.12-1.04-.34-11.25-8.3-24.59-12.69-38.57-12.69-35.9,0-65.11,29.21-65.11,65.11,0,11.32,2.96,22.44,8.56,32.23l30.44-80.72h30.83l10.32,78.87,28.21-77.07,4.8-12.19.57.48c17.42,14.52,27.41,35.81,27.41,58.4,0,41.92-34.1,76.02-76.02,76.02ZM61.13,196.95c12.61,8.81,27.41,13.47,42.82,13.47,41.33,0,74.95-33.62,74.95-74.95,0-22.02-9.63-42.79-26.45-57.09l-4.25,10.79-29.72,81.17-10.76-82.28h-29.14l-30.97,82.12-.57-.96c-6.07-10.19-9.28-21.86-9.28-33.75,0-36.49,29.69-66.18,66.18-66.18,14.21,0,27.77,4.46,39.21,12.9.12.09.26.13.4.13.28,0,.53-.17.63-.43l2.95-7.63c-12.7-8.99-27.62-13.74-43.2-13.74-41.33,0-74.95,33.62-74.95,74.95,0,22.24,9.79,43.14,26.88,57.46l3.5-9.05,30.31-80.02,11,79.15h29.15l32.21-79.21.54,1.03c5.2,9.91,7.79,21.08,7.51,32.32-.43,17.17-7.45,33.3-19.77,45.43-12.32,12.13-28.56,18.9-45.73,19.06-14.27.13-27.91-4.22-39.44-12.59-.12-.08-.25-.13-.39-.13-.28,0-.53.17-.63.43l-3.02,7.59Z"/>
  </g>
  <g>
    <path class="cls-1" d="M219.11,94.33V27.28h9.83l11.21,28.62c2.38,6.08,5.73,14.79,7.81,21.25h.2c-.53-8.6-1.15-18.93-1.15-30.93v-18.95h9.4v67.05h-9.83l-11.33-28.54c-2.48-6.16-5.43-14.24-7.35-21.32h-.2c.47,7.74.81,17.26.81,31.12v18.74h-9.4Z"/>
    <path class="cls-1" d="M305.74,59.96c0,25.2-8.81,35.17-20.67,35.17-13.35,0-20.01-14.18-20.01-34.44s7.61-34.21,21.04-34.21,19.64,15.38,19.64,33.47ZM276.11,60.81c0,14.58,2.76,25.06,9.51,25.06s9.08-12.07,9.08-25.46c0-12.14-2.02-24.67-9.18-24.67-6.65,0-9.41,11.03-9.41,25.06Z"/>
    <path class="cls-1" d="M314.42,28.28c3.71-.88,8.35-1.29,12.79-1.29,6.89,0,12.67,1.2,16.62,4.9,3.73,3.54,5.06,8.01,5.06,13.55,0,7.81-3.75,13.85-10.53,16.99v.2c4.72,1.69,7.17,6.14,8.53,14.08,1.41,8.21,3.01,15.35,4.09,17.63h-11.02c-.88-1.92-2.3-8.5-3.45-16.29-1.29-8.73-3.77-11.56-9.08-11.56h-2.43v27.85h-10.56V28.28ZM324.98,58.29h2.76c6.39,0,10.38-4.96,10.38-11.77s-2.66-11.04-9.58-11.16c-1.34,0-2.7.1-3.56.4v22.53Z"/>
    <path class="cls-1" d="M365.27,37.02h-12.03v-9.74h34.73v9.74h-12.08v57.32h-10.62v-57.32Z"/>
    <path class="cls-1" d="M405.82,27.28v27.74h15.93v-27.74h10.62v67.05h-10.62v-29.53h-15.93v29.53h-10.62V27.28h10.62Z"/>
    <path class="cls-1" d="M451.98,94.33l-12.09-67.05h11l4.33,29.25c1.17,8,1.95,15.64,2.79,23.84h.28c.91-8.37,2.39-15.65,3.9-23.92l5.42-29.16h8.74l5.22,28.78c1.35,7.71,2.65,15.24,3.53,24.31h.24c.95-9.17,1.95-16.42,2.99-24.09l4.3-28.99h10.39l-12.36,67.05h-10.8l-5.07-26.74c-1.21-6.64-2.32-14.22-3.17-22.04h-.2c-1.08,7.89-2.22,15.23-3.68,22.21l-5.47,26.57h-10.3Z"/>
    <path class="cls-1" d="M537.17,63.78h-15.95v21.34h18.09v9.22h-28.71V27.28h27.53v9.22h-16.91v18.41h15.95v8.88Z"/>
    <path class="cls-1" d="M546.47,83c2.5,1.51,6.86,2.67,10.4,2.67,6.54,0,10.11-3.83,10.11-9.31s-3.3-8.47-8.78-12.25c-7.41-4.75-12.63-11.43-12.63-18.67,0-10.49,7.12-18.75,19.64-18.75,4.32,0,8.22,1.28,10.01,2.43l-1.97,9.12c-1.82-1.19-4.66-2.29-8.28-2.29-6.03,0-8.9,4.1-8.9,8.13,0,5.2,2.68,7.56,9.51,11.97,8.52,5.52,11.91,12.02,11.91,19.23,0,11.99-8.64,19.66-20.62,19.66-5.04,0-10.07-1.42-12.16-2.8l1.78-9.13Z"/>
    <path class="cls-1" d="M593.19,37.02h-12.03v-9.74h34.73v9.74h-12.08v57.32h-10.62v-57.32Z"/>
    <path class="cls-1" d="M649.69,63.78h-15.95v21.34h18.09v9.22h-28.71V27.28h27.53v9.22h-16.91v18.41h15.95v8.88Z"/>
    <path class="cls-1" d="M660.52,28.28c3.71-.88,8.35-1.29,12.79-1.29,6.89,0,12.67,1.2,16.62,4.9,3.73,3.54,5.06,8.01,5.06,13.55,0,7.81-3.75,13.85-10.53,16.99v.2c4.72,1.69,7.17,6.14,8.53,14.08,1.41,8.21,3.01,15.35,4.09,17.63h-11.02c-.88-1.92-2.3-8.5-3.45-16.29-1.29-8.73-3.77-11.56-9.08-11.56h-2.44v27.85h-10.56V28.28ZM671.08,58.29h2.76c6.39,0,10.38-4.96,10.38-11.77s-2.66-11.04-9.58-11.16c-1.34,0-2.7.1-3.56.4v22.53Z"/>
    <path class="cls-1" d="M704.59,94.33V27.28h9.83l11.21,28.62c2.38,6.08,5.73,14.79,7.81,21.25h.2c-.53-8.6-1.15-18.93-1.15-30.93v-18.95h9.4v67.05h-9.83l-11.33-28.54c-2.47-6.16-5.43-14.24-7.35-21.32h-.2c.47,7.74.81,17.26.81,31.12v18.74h-9.4Z"/>
  </g>
  <g>
    <path class="cls-1" d="M219.2,173v-67.05h9.83l11.21,28.62c2.38,6.08,5.73,14.79,7.81,21.25h.2c-.53-8.6-1.15-18.93-1.15-30.93v-18.95h9.4v67.05h-9.83l-11.33-28.54c-2.47-6.16-5.43-14.24-7.35-21.32h-.2c.47,7.74.81,17.26.81,31.12v18.74h-9.4Z"/>
    <path class="cls-1" d="M294.82,142.44h-15.95v21.34h18.09v9.22h-28.71v-67.05h27.53v9.22h-16.91v18.41h15.95v8.88Z"/>
    <path class="cls-1" d="M314.09,173l-12.09-67.05h11l4.33,29.25c1.17,8,1.95,15.64,2.79,23.84h.29c.91-8.37,2.39-15.65,3.9-23.92l5.42-29.16h8.74l5.22,28.78c1.35,7.71,2.65,15.24,3.53,24.31h.24c.95-9.17,1.95-16.42,2.99-24.09l4.3-28.99h10.39l-12.36,67.05h-10.8l-5.07-26.74c-1.21-6.64-2.32-14.22-3.17-22.04h-.2c-1.08,7.89-2.22,15.23-3.68,22.21l-5.47,26.57h-10.31Z"/>
    <path class="cls-1" d="M371.17,161.66c2.5,1.51,6.86,2.67,10.4,2.67,6.54,0,10.11-3.83,10.11-9.31s-3.3-8.47-8.78-12.25c-7.41-4.75-12.63-11.43-12.63-18.67,0-10.49,7.12-18.75,19.64-18.75,4.32,0,8.22,1.28,10.01,2.43l-1.97,9.12c-1.82-1.19-4.66-2.29-8.28-2.29-6.03,0-8.9,4.1-8.9,8.13,0,5.2,2.68,7.56,9.51,11.97,8.52,5.52,11.91,12.02,11.91,19.23,0,11.99-8.64,19.66-20.62,19.66-5.04,0-10.07-1.42-12.16-2.8l1.78-9.13Z"/>
  </g>
  <g>
    <path class="cls-1" d="M219.26,249.03v-67.05h4.28l13.53,34.62c3.28,8.46,6.86,17.51,9.45,25.67h.2c-.7-12.73-.7-19.5-.7-30.64v-29.65h4.08v67.05h-4.28l-14.33-36.41c-2.98-7.46-5.77-14.52-8.66-24.37h-.2c.7,10.35.7,17.71.7,32.53v28.25h-4.08Z"/>
    <path class="cls-1" d="M284.43,215.71h-17.71v29.55h20.29v3.78h-24.57v-67.05h23.28v3.78h-19v26.17h17.71v3.78Z"/>
    <path class="cls-1" d="M303.33,185.66h-12.54v-3.68h29.35v3.68h-12.54v63.37h-4.28v-63.37Z"/>
    <path class="cls-1" d="M339.14,249.03l-13.73-67.05h4.38l7.16,35.82c1.79,8.85,3.08,16.32,3.98,24.57h.4c.8-8.66,2.39-15.82,4.18-24.77l7.06-35.62h3.98l7.26,34.72c1.69,8.16,3.38,15.92,4.38,25.67h.3c1.29-10.25,2.69-17.61,4.18-25.17l6.96-35.22h4.28l-13.83,67.05h-3.78l-7.96-39.2c-1.49-7.66-2.89-15.12-3.68-21.99h-.2c-.8,7.26-1.99,14.33-3.68,22.38l-7.96,38.8h-3.68Z"/>
    <path class="cls-1" d="M424,215.51c0,24.97-8.36,34.32-18.01,34.32-8.66,0-17.01-9.25-17.01-34.32s8.46-34.32,18.21-34.32c8.56,0,16.81,9.15,16.81,34.32ZM393.46,215.51c0,12.93,2.59,30.44,13.13,30.44s12.93-17.51,12.93-30.44-2.59-30.44-13.03-30.44-13.03,17.31-13.03,30.44Z"/>
    <path class="cls-1" d="M433.75,182.97c2.69-.99,5.97-1.29,9.05-1.29,6.27,0,10.35,1.59,13.33,4.68,2.89,3.08,4.38,7.56,4.38,12.54,0,9.45-4.38,14.52-11.04,17.61v.2c5.17,1.29,7.96,6.37,9.55,16.12,1.69,10.25,2.79,14.33,3.58,16.22h-4.28c-.99-2.09-2.19-8.16-3.68-16.91-1.69-9.75-5.07-13.83-12.93-13.83h-3.68v30.74h-4.28v-66.06ZM438.03,214.91h3.78c8.26,0,14.23-5.87,14.23-15.22s-3.68-14.33-13.43-14.33c-1.79,0-3.38.1-4.58.4v29.15Z"/>
    <path class="cls-1" d="M470.66,181.98h4.28v32.93h.2c1.79-2.79,3.28-5.37,4.68-7.76l14.72-25.17h4.88l-17.31,28.25,17.91,38.8h-4.68l-16.12-35.12-4.28,6.96v28.15h-4.28v-67.05Z"/>
  </g>
</svg>