<?xml version="1.0" encoding="UTF-8"?>
<svg id="Layer_1" xmlns="http://www.w3.org/2000/svg" version="1.1" viewBox="0 0 1047 101.19">
  <!-- Generator: Adobe Illustrator 29.6.0, SVG Export Plug-In . SVG Version: 2.1.1 Build 207)  -->
  <defs>
    <style>
      .st0 {
        fill: #fff;
      }
    </style>
  </defs>
  <g>
    <polygon class="st0" points="9.4 9.62 9.4 12.33 16 19.62 16 70.03 7.1 72.53 7.1 75.53 31.1 75.53 31.1 72.53 23.5 70.53 21.6 68.12 21.6 26.02 63.5 76.03 67.2 76.03 67.2 16.02 76.1 13.33 76.1 10.23 51.8 10.23 51.8 13.73 59.5 15.62 61.4 18.02 61.4 57.92 61.4 57.82 60.9 57.82 20.2 9.62 9.4 9.62"/>
    <path class="st0" d="M99.2,76.62c-11.8,0-23.2-7.6-23.2-23.8s12-24.2,23.2-24.2,23.4,7.3,23.4,23.4c0,15.5-12.4,24.6-23.4,24.6ZM113.4,53.42c0-11-6-20.4-15.5-20.4-8.5,0-12.7,7.4-12.7,18.4s5.3,20.7,15.3,20.7c8.5,0,12.9-7.7,12.9-18.7Z"/>
    <path class="st0" d="M241.7,48.62c0-11-6.2-13.2-13.4-13.2-6.1,0-10.1,4.5-10.1,4.5v28.4l1.9,2.4,6.4,2.2v2.5h-23v-2.5l6.5-2.5V22.83c0-8.6-2.2-11-6.9-11v-2.3l14.6-4.9h1s-.5,10.2-.5,17.8v13.7s9.5-7.6,16-7.6c8.1,0,15.6,3.4,15.6,15.3v24.5l1.9,2.4,6.4,2.2v2.5h-23v-2.5l6.3-2.4.3-21.9Z"/>
    <path class="st0" d="M334.9,50.12c0,13.7,7.8,19.4,16.7,19.4,5.5,0,12.1-2.3,12.1-2.3l1,1.9c-2.4,2.4-9,7.4-17.3,7.4-11.2,0-21.3-8.4-21.3-23.8,0-14,9.7-24.2,21.7-24.2,9.4,0,16.7,5.6,16.7,16.3,0,2.8-.5,5.2-.5,5.2h-29.1v.1ZM349.4,46.42c4.7-.2,6.4-1.1,6.4-5.9,0-4.1-3-7.3-9.3-7.3s-11.6,5.8-11.6,13.7l14.5-.5Z"/>
    <path class="st0" d="M375.3,74.82c-.7-.3-2.5-1.3-2.6-3.4l-.6-9.4h4.3c1.2,6.4,5.5,10.6,11.1,10.6s8-3,8-6.9-3.1-5.7-6.8-7.7l-5-2.6c-7.2-3.7-10.8-6.6-10.8-13.7,0-8.9,6.4-13.1,16.4-13.1,7,0,12.4,2.7,12.4,2.7l-1.3,11.5h-4c0-7.2-3-9.9-9-9.9-4,0-7.8,1.6-7.8,5.5,0,3.2,1.3,4.5,9.1,8.6l4.4,2.3c8.1,4.1,10.4,7.6,10.4,14.3,0,8.1-8.1,12.9-16,12.9-4.9.1-9.3-.5-12.2-1.7Z"/>
    <path class="st0" d="M452.9,50.12c0,13.7,7.8,19.4,16.7,19.4,5.5,0,12.1-2.3,12.1-2.3l1,1.9c-2.4,2.4-9,7.4-17.3,7.4-11.2,0-21.3-8.4-21.3-23.8,0-14,9.7-24.2,21.7-24.2,9.4,0,16.7,5.6,16.7,16.3,0,2.8-.5,5.2-.5,5.2h-29.1v.1ZM467.4,46.42c4.7-.2,6.4-1.1,6.4-5.9,0-4.1-3-7.3-9.3-7.3s-11.6,5.8-11.6,13.7l14.5-.5Z"/>
    <path class="st0" d="M574.3,70.73l-1.9-2.4.1-25c0-11.5-7.5-14.8-15.2-14.8-6.5,0-15.7,7.6-15.7,7.6,0-4.1.2-7.9.2-7.9h-.8l-14.4,5.2v2.4c5.5,0,7,4.9,7,13.8v20.7l-6.5,2.5v2.6h22.7l.2-2.5-6.4-2.2-1.9-2.4v-28.3s3.5-4.6,9.7-4.6,13,2.3,13,13.2l-.3,21.9-6.3,2.4v2.6h22.7l.2-2.5-6.4-2.3Z"/>
    <path class="st0" d="M300.5,76.03l-10.6-29.3-12.1,29.3h-4.1l-11.9-36.2c-1.7-4.5-2.6-7.2-5.8-7.2v-2.8h19.5v2.8l-5.9,1.9,8.9,30,7.8-18.7,1.8-4.8-2.7-7.6-3.4-.8v-2.8h18.8v3l-5.9,1.8,10,30,10.4-29.8-6.7-2.4v-2.6h17.7v2.8c-4,.5-6,1.6-9.2,9.7l-11.9,33.7h-4.7Z"/>
    <path class="st0" d="M198,68.73s-2.8,1.8-6.9,1.8c-4.4,0-8.5-2.5-8.4-8.6l.4-25.8h14.7l.2-1.6h0l1-8.1-1.9-.3-1.4,3.1-.8.7-11.6.5h-.1v-12l-5.7,1-2.5,11.1-8.1.8v3.8c4.4,0,8.1.4,8.1,4.6s-.4,17.6-.4,22.9c0,10.1,3.8,13.8,10.3,13.8,5.5,0,10.1-2.3,14.2-5.6l-1.1-2.1Z"/>
    <path class="st0" d="M439.6,68.73s-2.8,1.8-6.9,1.8c-4.4,0-8.5-2.5-8.4-8.6l.4-25.8h14.6l.2-1.6h0l1-8.1-1.9-.3-1.4,3.1-.8.7-11.6.5h0v-12l-5.7,1-2.5,11.1-8.1.8v3.8c4.4,0,8.1.4,8.1,4.6s-.4,17.6-.4,22.9c0,10.1,3.8,13.8,10.3,13.8,5.5,0,10.1-2.3,14.2-5.6l-1.1-2.1Z"/>
    <path class="st0" d="M161.3,29.23h0c-.1,0-1.7-.6-4.9-.6-6.9,0-14.1,10.9-14.1,10.9,0-6,.2-11.1.2-11.1h-.8l-14.1,5.2v2.4c5.3,0,7,4.8,7,13v21.5l-6.5,2.5v2.6h22.7v-2.5l-6.4-2.2-1.9-2.4v-21.1c0-6.5,5.1-10.2,10.7-10.2,1.1,0,2.3.3,3.3.6l1.5,2.3,1.9.2,1.4-11.1h0Z"/>
    <path class="st0" d="M522.2,29.23h0c-.1,0-1.7-.6-4.9-.6-6.9,0-14.1,10.9-14.1,10.9,0-6,.2-11.1.2-11.1h-.8l-14.1,5.2v2.4c5.3,0,7,4.8,7,13v21.5l-6.5,2.5v2.6h22.7v-2.5l-6.4-2.2-1.9-2.4v-21.1c0-6.5,5.1-10.2,10.7-10.2,1.1,0,2.3.3,3.3.6l1.5,2.3,1.9.2,1.4-11.1h0Z"/>
  </g>
  <g>
    <path class="st0" d="M813.6,49.92c0,13.7,7.8,19.4,16.7,19.4,5.5,0,12.1-2.3,12.1-2.3l1,1.9c-2.4,2.4-9,7.4-17.3,7.4-11.2,0-21.3-8.4-21.3-23.8,0-14,9.7-24.2,21.7-24.2,9.4,0,16.7,5.6,16.7,16.3,0,2.8-.5,5.2-.5,5.2h-29.1v.1ZM828.1,46.23c4.7-.2,6.4-1.1,6.4-5.9,0-4.1-3-7.3-9.3-7.3s-11.6,5.8-11.6,13.7l14.5-.5Z"/>
    <path class="st0" d="M746.7,68.23l1.9,2.4,6.4,2.2-.2,2.5h-22.4v-2.6l6.5-2.5v-22.4c0-9.1-1.8-12.1-7.1-12.1v-2.4l14.4-5.2h.8s-.3,6.8-.3,13.9v26.2Z"/>
    <path class="st0" d="M777.5,29.62v2.6l-6.6,2.2,11,29.9,11.4-29.7-6.9-2.4v-2.6h17.5v2.8c-2.6,0-5.7,1.3-9.2,9.7l-12.5,33.8h-4.7l-13.8-36.2c-2.2-5.2-4.6-7.2-7.8-7.2v-2.8h21.6v-.1Z"/>
    <path class="st0" d="M893.2,74.62c-.7-.3-2.5-1.3-2.6-3.4l-.6-9.4h4.3c1.2,6.4,5.5,10.6,11.2,10.6s8-3,8-6.9-3.1-5.7-6.8-7.7l-5-2.6c-7.2-3.7-10.8-6.6-10.8-13.7,0-8.9,6.4-13.1,16.4-13.1,7,0,12.4,2.7,12.4,2.7l-1.3,11.5h-4c0-7.2-3-9.9-9-9.9-4,0-7.8,1.6-7.8,5.5,0,3.2,1.3,4.5,9.1,8.6l4.4,2.3c8.1,4.1,10.4,7.6,10.4,14.3,0,8.1-8.1,12.9-16,12.9-5,.1-9.4-.5-12.3-1.7Z"/>
    <path class="st0" d="M995.8,39.52c-2.3-5.2-4.6-7.2-7.8-7.2v-2.8h21.3v2.6l-6.6,2.2,11.4,29.9,10.4-29.7-6.9-2.4v-2.6h18.4v2.8c-2.6,0-6.2,1.3-9.4,9.7l-11.5,31.4c-6.4,16.8-14.2,25.7-26,25l-1.2-9.7s2.7.7,7.6.3c5.7-.4,11.3-6.2,13.6-13.7l-13.3-35.8Z"/>
    <path class="st0" d="M721,70.62l-1.9-2.4.1-25c0-11.5-7.5-14.8-15.2-14.8-6.5,0-15.7,7.6-15.7,7.6,0-4.1.2-7.9.2-7.9h-.8l-14.4,5.2v2.4c5.5,0,7,4.9,7,13.8v20.7l-6.5,2.5v2.6h22.7l.2-2.5-6.4-2.2-1.9-2.4v-28.3s3.5-4.6,9.7-4.6,13,2.3,13,13.2l-.3,21.9-6.3,2.4v2.6h22.7l.2-2.5-6.4-2.3Z"/>
    <path class="st0" d="M984.4,68.53s-2.8,1.8-6.9,1.8c-4.4,0-8.5-2.5-8.4-8.6l.4-25.8h12.5l.2-1.6h0l1-8.1-1.9-.3-1.4,3.1-.8.7-9.5.5h0v-11.9l-5.7,1-2.5,11.1-8.1.8v3.8c4.4,0,8.1.4,8.1,4.6s-.4,17.6-.4,22.9c0,10.1,3.8,13.8,10.3,13.8,5.5,0,10.1-2.3,14.2-5.6l-1.1-2.2Z"/>
    <path class="st0" d="M884.5,29.02h0c-.1,0-1.7-.6-4.9-.6-6.9,0-14.1,10.9-14.1,10.9,0-6,.2-11.1.2-11.1h-.8l-14.1,5.2v2.4c5.3,0,7,4.8,7,13v21.5l-6.5,2.5v2.6h22.7v-2.5l-6.4-2.2-1.9-2.4v-21.1c0-6.5,5.1-10.2,10.7-10.2,1.1,0,2.3.3,3.3.6l1.5,2.3,1.9.2,1.4-11.1h0Z"/>
    <path class="st0" d="M742.6,20.52c-1.1,0-6.2-5.6-6.2-6.6s5-6.7,6.2-6.7c1.3,0,6.2,5.7,6.2,6.7s-5.1,6.6-6.2,6.6Z"/>
    <path class="st0" d="M944.1,68.23l1.9,2.4,6.4,2.2-.2,2.5h-22.4v-2.6l6.5-2.5v-22.4c0-9.1-1.8-12.1-7.1-12.1v-2.4l14.4-5.2h.8s-.3,6.8-.3,13.9v26.2Z"/>
    <path class="st0" d="M663.5,53.32c0,17.1-12.1,22.7-23.8,22.7-17.5,0-24.7-8.2-24.7-23.4v-28.7c0-8.4-2.3-10.3-8.9-10.6v-3.3h26.9v3l-9.2,2.9v32.4c0,19.5,7.9,22.4,16.9,22.4s16.5-4.3,16.5-20.2V15.92l-8.9-2.7v-3.1h23.7v3.5l-6.7,1.1-1.9,2.4v12.7l.1,23.5Z"/>
    <path class="st0" d="M940,20.52c-1.1,0-6.2-5.6-6.2-6.6s5-6.7,6.2-6.7c1.3,0,6.2,5.7,6.2,6.7s-5.1,6.6-6.2,6.6Z"/>
  </g>
</svg>