<?xml version="1.0" encoding="UTF-8"?>
<svg id="Layer_1" data-name="Layer 1" xmlns="http://www.w3.org/2000/svg" viewBox="0 0 612 347.69">
  <defs>
    <style>
      .cls-1 {
        fill: #7f3f98;
      }

      .cls-2 {
        fill: #231f20;
      }
    </style>
  </defs>
  <path class="cls-2" d="M63.04,262.59V39.4h43.95l34.56,81.79c9.88,23.51,19.75,51.33,27.16,76.49h.74c-2.47-29.47-3.21-59.61-3.21-93.05V39.4h34.56v223.19h-39.5l-35.55-86.1c-9.88-23.84-20.74-52.65-28.89-78.81l-.74.33c.99,29.47,1.48,60.93,1.48,97.36v67.22h-34.56Z"/>
  <path class="cls-2" d="M248.72,262.59V39.4h43.95l34.56,81.79c9.88,23.51,19.75,51.33,27.16,76.49h.74c-2.47-29.47-3.21-59.61-3.21-93.05V39.4h34.56v223.19h-39.5l-35.55-86.1c-9.88-23.84-20.74-52.65-28.89-78.81l-.74.33c.99,29.47,1.48,60.93,1.48,97.36v67.22h-34.56Z"/>
  <path class="cls-1" d="M516.48,262.59l-15.06-40.4c-6.17-15.56-10.12-27.15-14.81-40.07h-.49c-3.46,12.92-7.65,24.5-12.84,40.07l-13.83,40.4h-42.96l48.14-112.92-46.41-110.27h43.21l14.57,40.73c4.94,13.58,8.64,24.5,12.59,37.09h.49c3.95-14.24,7.16-24.17,11.36-37.09l14.07-40.73h42.96l-46.91,108.95,49.38,114.25h-43.45Z"/>
  <rect class="cls-1" x="49.24" y="277.03" width="391.81" height="25.82"/>
  <polygon class="cls-1" points="445.98 302.81 398.24 302.81 416.48 262.59 459.45 262.59 445.98 302.81"/>
  <polygon class="cls-1" points="532.62 302.79 578.37 302.79 559.94 262.59 516.44 262.57 532.62 302.79"/>
</svg>